<svg xmlns="http://www.w3.org/2000/svg" viewBox="0 0 800 1200">
  <!-- Fond noir -->
  
  <!-- Motif en damier -->
  <pattern id="checkerPattern" patternUnits="userSpaceOnUse" width="40" height="40" patternTransform="rotate(45)">
    <rect width="20" height="20" fill="#111111"/>
    <rect x="20" y="0" width="20" height="20" fill="#0D0D0D"/>
    <rect x="0" y="20" width="20" height="20" fill="#0D0D0D"/>
    <rect x="20" y="20" width="20" height="20" fill="#111111"/>
  </pattern>
  
  
  
  <!-- Bordure décorative -->
  <path d="M60,60 H740 V1140 H60 V60" stroke="#00ffff" fill="none" stroke-width="4"/>
  
  <!-- Coins décoratifs -->
  <path d="M40,40 H200 L220,60 H40 V220 L60,240 V40" fill="#00ffff"/>
  <path d="M760,40 H600 L580,60 H760 V220 L740,240 V40" fill="#00ffff"/>
  <path d="M40,1160 H200 L220,1140 H40 V980 L60,960 V1160" fill="#00ffff"/>
  <path d="M760,1160 H600 L580,1140 H760 V980 L740,960 V1160" fill="#00ffff"/>
  
  <!-- Motifs géométriques -->
  <path d="M400,40 L420,60 L380,60 Z" fill="#00ffff"/>
  <path d="M400,1160 L420,1140 L380,1140 Z" fill="#00ffff"/>
  <path d="M40,600 L60,620 L60,580 Z" fill="#00ffff"/>
  <path d="M760,600 L740,620 L740,580 Z" fill="#00ffff"/>
  
  
</svg>
